<?xml version="1.0" standalone="no"?>
<!DOCTYPE svg PUBLIC "-//W3C//DTD SVG 20010904//EN"
 "http://www.w3.org/TR/2001/REC-SVG-20010904/DTD/svg10.dtd">
<svg version="1.0" xmlns="http://www.w3.org/2000/svg"
 width="1152.000000pt" height="647.000000pt" viewBox="0 0 1152.000000 647.000000"
 preserveAspectRatio="xMidYMid meet">

<g transform="translate(0.000000,647.000000) scale(0.100000,-0.100000)"
fill="#000000" stroke="none">
<path d="M4110 6438 c-338 -27 -382 -35 -795 -139 -70 -18 -145 -50 -250 -109
-16 -9 -64 -32 -105 -51 -145 -66 -234 -124 -410 -269 -58 -48 -123 -98 -145
-112 -54 -35 -345 -330 -345 -350 0 -7 -38 -58 -132 -176 -137 -172 -241 -365
-345 -642 -13 -36 -35 -86 -48 -111 -13 -26 -35 -93 -48 -150 -14 -57 -39
-151 -56 -209 -50 -165 -62 -250 -70 -475 -7 -210 0 -401 19 -505 5 -30 12
-77 15 -105 18 -203 97 -512 159 -630 9 -16 16 -38 16 -48 0 -23 51 -124 105
-207 23 -36 58 -92 79 -125 218 -354 301 -456 579 -708 286 -262 493 -404 765
-525 135 -61 401 -147 482 -157 8 -1 33 -7 55 -13 22 -6 96 -21 165 -32 180
-30 638 -39 795 -16 189 28 367 63 455 91 47 14 133 39 193 56 59 16 126 38
150 48 159 72 197 91 197 100 0 12 -25 38 -51 51 -14 8 -27 5 -56 -13 -46 -28
-118 -56 -238 -92 -49 -14 -99 -30 -110 -35 -11 -5 -33 -11 -50 -14 -16 -3
-71 -16 -121 -30 -50 -13 -163 -37 -250 -52 -144 -25 -181 -28 -399 -28 -132
0 -301 5 -375 13 -121 11 -180 20 -344 53 -28 5 -102 27 -165 49 -64 22 -150
51 -191 64 -129 42 -232 89 -320 147 -146 94 -164 107 -205 137 -22 17 -50 35
-61 40 -12 5 -57 43 -101 83 -43 40 -114 105 -157 143 -42 39 -96 90 -119 115
-23 25 -62 65 -86 90 -25 25 -60 68 -79 95 -19 28 -53 70 -77 95 -63 68 -125
155 -181 255 -178 316 -175 310 -237 465 -32 82 -44 126 -101 380 -44 195 -59
381 -56 675 2 99 2 195 1 213 0 18 10 78 23 135 13 56 24 120 25 142 2 73 71
326 116 430 38 87 55 128 55 137 0 4 39 86 86 181 103 207 139 263 327 500 34
44 78 100 98 125 49 64 144 160 204 207 28 22 97 80 154 130 133 116 222 185
236 185 7 0 20 10 31 21 16 18 172 99 191 99 3 0 41 18 85 40 206 105 394 160
613 180 113 10 300 38 405 60 51 11 225 9 290 -4 14 -2 75 -10 135 -16 61 -7
137 -20 170 -30 83 -25 122 -33 175 -35 99 -5 460 -130 593 -206 l72 -41 44
24 c25 14 46 29 48 34 7 21 -159 117 -270 156 -62 21 -134 47 -162 57 -223 82
-353 113 -570 136 -246 27 -396 34 -525 23z"/>
<path d="M6880 6409 c-19 -5 -80 -14 -135 -19 -100 -10 -164 -20 -240 -39 -22
-5 -80 -18 -130 -29 -149 -33 -238 -66 -450 -167 -121 -56 -142 -76 -107 -101
12 -8 28 -21 36 -29 15 -16 62 -21 68 -7 5 12 250 130 303 146 126 37 367 95
435 105 41 6 107 15 147 21 39 5 134 10 210 11 76 1 165 4 198 8 68 7 151 0
279 -23 48 -9 117 -18 152 -21 68 -6 169 -26 225 -43 163 -52 238 -82 399
-157 102 -48 212 -98 245 -112 33 -14 76 -38 96 -54 20 -16 39 -29 42 -29 10
0 237 -172 237 -179 0 -3 66 -67 146 -141 192 -178 285 -290 387 -470 21 -36
65 -103 98 -150 33 -47 72 -110 86 -140 14 -30 37 -80 53 -110 15 -30 46 -108
68 -172 23 -65 46 -127 52 -139 7 -11 13 -33 15 -47 3 -23 20 -86 54 -197 5
-16 12 -46 16 -65 3 -19 14 -71 25 -115 29 -128 41 -246 45 -470 3 -183 0
-230 -21 -370 -13 -88 -35 -194 -50 -235 -14 -41 -32 -104 -41 -140 -15 -63
-27 -100 -58 -177 -9 -21 -17 -49 -20 -62 -10 -54 -49 -150 -86 -214 -22 -37
-67 -123 -99 -191 -90 -193 -251 -422 -421 -601 -121 -129 -339 -328 -389
-356 -40 -23 -96 -58 -172 -110 -74 -50 -157 -99 -169 -99 -5 0 -51 -20 -102
-44 -51 -25 -128 -56 -172 -71 -44 -15 -90 -33 -103 -41 -20 -13 -103 -38
-212 -64 -36 -9 -218 -38 -280 -44 -290 -32 -488 -48 -518 -42 -15 3 -74 8
-132 11 -58 3 -125 8 -150 11 -75 9 -241 33 -310 46 -68 12 -360 108 -420 138
-19 9 -47 20 -61 23 -15 4 -49 23 -78 42 -57 39 -84 40 -120 1 l-22 -23 69
-41 c63 -37 193 -94 330 -143 93 -34 313 -87 467 -113 222 -37 607 -52 767
-30 52 7 141 18 199 24 57 7 115 13 129 15 14 2 51 12 83 24 32 11 78 23 102
26 48 5 323 99 425 144 163 73 226 103 240 116 8 7 40 26 70 42 184 95 327
207 538 420 100 102 182 189 182 194 0 4 22 34 48 66 27 32 54 68 60 80 7 12
36 56 66 97 29 41 64 100 77 130 12 31 26 56 29 56 4 0 30 37 58 83 61 99 154
318 187 437 13 47 34 119 48 160 27 83 64 235 77 320 5 30 16 84 24 120 35
144 29 617 -9 790 -9 41 -29 145 -45 230 -31 162 -53 242 -94 344 -13 34 -46
117 -72 186 -71 184 -169 366 -255 476 -30 38 -58 76 -64 85 -62 100 -148 198
-405 459 -127 129 -384 317 -550 403 -301 155 -483 237 -526 237 -10 0 -75 18
-144 39 -205 64 -274 73 -620 76 -168 2 -321 -1 -340 -6z"/>
<path d="M5571 5969 c-144 -88 -214 -140 -320 -237 -145 -133 -352 -345 -392
-402 -22 -30 -73 -100 -114 -155 -41 -55 -94 -136 -117 -180 -23 -44 -59 -108
-80 -143 -21 -34 -38 -66 -38 -70 0 -5 -17 -49 -39 -98 -21 -49 -55 -141 -76
-204 -20 -63 -43 -131 -50 -150 -79 -204 -155 -717 -140 -950 11 -174 15 -206
36 -326 11 -65 27 -155 34 -199 7 -44 22 -108 34 -142 12 -34 21 -68 21 -76 0
-26 70 -233 111 -327 23 -52 51 -117 63 -145 11 -27 39 -77 61 -112 22 -34 76
-119 120 -188 129 -202 214 -312 340 -440 148 -149 362 -344 435 -396 30 -21
83 -59 117 -83 74 -53 78 -54 123 -34 81 35 170 101 295 218 49 47 142 129
205 182 192 161 467 496 573 698 19 36 50 92 69 125 83 146 195 437 229 594
11 52 22 98 25 102 11 18 64 316 75 424 13 129 6 415 -11 495 -6 25 -15 81
-21 124 -8 70 -16 116 -44 276 -33 183 -114 431 -198 610 -53 111 -183 309
-291 444 -46 57 -101 130 -121 163 -103 160 -328 376 -581 556 -21 15 -67 48
-101 72 -39 28 -73 45 -90 45 -17 0 -74 -29 -142 -71z m225 -74 c201 -152 348
-278 468 -400 86 -87 248 -293 330 -420 73 -111 79 -121 137 -205 54 -79 129
-223 129 -249 0 -9 20 -70 45 -136 25 -66 55 -160 66 -210 12 -49 30 -126 40
-170 18 -77 37 -205 60 -419 6 -55 9 -143 5 -195 -11 -180 -14 -226 -20 -266
-3 -22 -8 -62 -11 -90 -3 -27 -12 -77 -20 -110 -8 -33 -21 -98 -30 -145 -8
-47 -24 -116 -35 -155 -31 -117 -125 -377 -154 -430 -15 -27 -62 -113 -104
-190 -43 -77 -96 -167 -120 -200 -176 -247 -336 -435 -429 -506 -40 -31 -106
-88 -146 -126 -92 -88 -317 -273 -332 -273 -15 0 -214 152 -331 252 -104 90
-216 210 -299 323 -32 44 -84 107 -115 140 -31 33 -77 89 -101 125 -25 36 -62
89 -83 118 -100 143 -261 487 -322 692 -15 50 -61 271 -75 360 -5 30 -16 87
-24 125 -10 45 -18 146 -22 280 -5 218 5 332 42 465 9 30 20 95 26 145 5 49
13 103 18 120 5 16 21 71 36 120 46 158 108 322 163 432 22 43 45 96 52 118
32 102 194 325 431 597 114 130 165 176 319 291 41 30 100 80 131 109 31 29
82 66 112 81 31 15 59 32 62 37 12 20 44 9 101 -35z"/>
<path d="M5475 5516 c-51 -22 -73 -106 -39 -154 20 -29 66 -52 104 -52 32 0
75 34 65 50 -9 15 -26 12 -40 -6 -9 -13 -20 -15 -48 -10 -64 12 -87 78 -46
130 24 31 52 33 96 7 29 -19 43 -18 43 1 0 13 -62 48 -85 48 -11 -1 -34 -7
-50 -14z"/>
<path d="M5722 5503 c3 -25 -1 -28 -29 -31 -43 -4 -45 -32 -3 -32 23 0 30 -5
30 -19 0 -15 -8 -21 -32 -23 -21 -2 -33 -8 -33 -18 0 -11 9 -14 38 -12 35 3
37 2 37 -27 0 -21 5 -31 15 -31 10 0 15 10 15 30 0 25 4 30 24 30 18 0 25 -6
28 -22 2 -13 11 -24 21 -26 14 -3 17 1 11 21 -5 22 -2 26 20 29 34 4 35 22 1
26 -32 4 -36 47 -5 55 11 3 20 10 20 15 0 5 -9 12 -20 15 -12 3 -20 14 -20 26
0 12 -6 21 -15 21 -8 0 -15 -9 -15 -20 0 -11 -4 -20 -9 -20 -5 0 -16 -3 -25
-6 -10 -4 -17 2 -22 20 -9 36 -36 35 -32 -1z m88 -72 c0 -23 -35 -34 -50 -15
-16 18 -4 34 26 34 17 0 24 -6 24 -19z"/>
<path d="M5106 5088 c-3 -13 -6 -36 -6 -51 0 -28 -1 -28 -57 -25 l-57 3 0 39
c-1 22 -6 41 -12 43 -13 4 -31 -188 -19 -206 14 -24 25 -8 25 39 l0 50 60 0
60 0 0 -45 c0 -33 4 -45 15 -45 12 0 15 19 15 110 0 103 -10 139 -24 88z"/>
<path d="M5503 4988 c1 -74 6 -113 14 -115 6 -2 14 6 18 17 7 22 13 22 65 9
31 -8 14 26 -17 36 -18 5 -33 12 -33 15 0 3 14 14 30 25 16 11 30 28 30 38 0
22 -6 22 -37 -3 -34 -27 -43 -18 -43 41 0 36 -4 49 -14 49 -12 0 -14 -21 -13
-112z"/>
<path d="M5936 5068 c-3 -18 -7 -64 -8 -103 -2 -53 0 -70 10 -70 10 0 15 22
18 84 2 46 6 92 9 102 4 13 1 19 -9 19 -9 0 -17 -12 -20 -32z"/>
<path d="M5855 5017 c-8 -82 -5 -118 10 -118 10 1 24 154 17 179 -10 30 -21 6
-27 -61z"/>
<path d="M5212 5021 c-13 -3 -23 -10 -22 -16 0 -9 7 -11 53 -14 27 -2 20 -18
-8 -18 -30 0 -65 -29 -65 -53 0 -32 27 -44 78 -34 45 9 47 10 50 47 5 64 -31
101 -86 88z m48 -94 c0 -7 -13 -14 -30 -15 -30 -2 -41 12 -17 21 23 10 47 7
47 -6z"/>
<path d="M5356 5017 c-29 -21 -17 -60 22 -72 17 -5 32 -12 32 -16 0 -15 -29
-17 -55 -3 -35 18 -45 18 -45 -2 0 -15 55 -44 83 -44 23 0 67 39 61 55 -3 8
-23 22 -45 32 -21 9 -39 20 -39 25 0 14 33 9 52 -9 17 -15 18 -15 18 9 0 18
-7 27 -22 32 -33 8 -42 7 -62 -7z"/>
<path d="M5676 5004 c-26 -26 -20 -69 15 -98 34 -29 56 -32 84 -13 24 18 11
41 -15 27 -19 -10 -50 -4 -50 10 0 11 26 20 56 20 29 0 40 21 24 49 -14 26
-90 30 -114 5z m69 -24 c-28 -12 -57 -12 -50 0 3 6 21 10 38 9 27 0 29 -2 12
-9z"/>
<path d="M6174 4569 c2 -63 5 -115 5 -117 1 -2 6 -2 13 0 7 3 13 22 15 43 3
49 25 74 48 55 10 -8 15 -25 14 -44 -3 -35 7 -59 22 -51 15 10 10 89 -7 114
-14 19 -23 22 -50 18 l-33 -6 -3 46 c-2 28 -8 48 -16 51 -11 3 -13 -17 -8
-109z"/>
<path d="M5529 4649 c-43 -16 -73 -114 -49 -159 17 -31 70 -51 108 -40 47 13
55 20 42 35 -8 10 -17 11 -41 2 -24 -9 -35 -9 -57 3 -31 18 -39 50 -21 92 15
38 46 51 76 32 31 -20 43 4 13 28 -25 20 -33 21 -71 7z"/>
<path d="M5694 4654 c-6 -3 -9 -36 -8 -87 2 -45 3 -90 4 -99 0 -10 7 -18 16
-18 13 0 15 7 9 39 -6 36 -5 39 22 44 15 3 38 15 50 26 18 17 20 26 13 53 -6
17 -15 35 -22 40 -14 8 -65 10 -84 2z m77 -40 c11 -14 10 -18 -6 -30 -10 -8
-24 -14 -31 -14 -15 0 -28 35 -19 50 9 15 41 12 56 -6z"/>
<path d="M6034 4613 c-4 -16 -11 -34 -17 -41 -7 -9 -7 -16 1 -24 7 -7 12 -24
12 -39 0 -45 36 -71 69 -50 21 13 6 41 -18 34 -17 -4 -21 -1 -21 22 0 18 6 28
20 32 11 3 20 10 20 15 0 5 -9 12 -20 15 -14 4 -20 14 -20 34 0 37 -18 38 -26
2z"/>
<path d="M6346 4568 c-21 -30 -20 -81 2 -100 30 -27 80 -30 102 -8 11 11 20
27 20 35 0 20 -29 78 -44 87 -23 16 -65 8 -80 -14z m72 -20 c7 -7 12 -25 12
-40 0 -23 -4 -28 -23 -28 -27 0 -47 17 -47 40 0 18 19 40 35 40 6 0 16 -5 23
-12z"/>
<path d="M6516 4579 c-11 -34 -12 -109 -3 -118 19 -19 27 -12 27 22 0 36 25
67 54 67 15 0 17 -8 14 -47 -2 -38 0 -48 12 -48 11 0 16 14 18 57 3 48 0 58
-17 67 -14 8 -28 8 -47 1 -19 -7 -30 -7 -40 1 -10 9 -15 8 -18 -2z"/>
<path d="M5931 4549 c-12 -19 -23 -38 -25 -44 -3 -5 -16 3 -31 19 -20 21 -29
26 -38 17 -8 -8 -4 -18 17 -40 29 -31 30 -57 1 -81 -20 -16 -19 -42 1 -38 24
5 120 176 106 190 -8 8 -16 1 -31 -23z"/>
<path d="M5594 4178 c-36 -44 -54 -90 -47 -119 11 -40 41 -85 68 -99 36 -19
45 -3 14 24 -49 42 -62 71 -50 108 6 18 22 45 36 60 26 29 31 43 16 52 -5 4
-22 -9 -37 -26z"/>
<path d="M6414 4199 c-3 -6 7 -24 24 -39 17 -15 34 -39 37 -53 7 -25 -13 -76
-42 -109 -21 -23 3 -35 27 -13 26 24 54 99 46 128 -12 49 -77 110 -92 86z"/>
<path d="M4857 4158 l-37 -43 -32 38 c-53 59 -69 40 -23 -28 14 -20 30 -60 35
-87 11 -56 18 -71 29 -63 5 2 6 25 4 49 -5 37 -1 50 23 83 16 21 35 44 42 51
13 15 16 42 4 42 -4 0 -24 -19 -45 -42z"/>
<path d="M5169 4193 c-13 -3 -18 -22 -24 -77 -7 -81 0 -126 21 -126 11 0 13
10 11 35 -3 20 0 38 5 41 6 4 31 -14 57 -40 26 -25 50 -46 54 -46 17 0 4 32
-24 58 -31 29 -31 31 -15 53 42 60 -10 122 -85 102z m65 -46 c9 -15 7 -21 -8
-33 -11 -8 -28 -14 -37 -14 -17 0 -17 12 -3 58 5 18 34 11 48 -11z"/>
<path d="M5320 4184 c0 -9 11 -42 24 -73 14 -31 29 -69 34 -86 5 -16 14 -30
21 -30 11 0 80 156 81 183 0 29 -21 7 -46 -48 -15 -33 -30 -60 -34 -60 -4 0
-20 29 -35 65 -27 63 -45 82 -45 49z"/>
<path d="M6055 4088 c2 -61 7 -113 10 -116 2 -3 11 1 20 8 12 10 18 10 30 0
18 -15 50 -5 73 25 25 31 18 81 -14 102 -23 15 -37 14 -76 -2 -14 -6 -17 0
-16 33 0 42 -7 62 -23 62 -6 0 -7 -44 -4 -112z m116 -19 c9 -17 7 -25 -11 -44
l-22 -24 -29 21 -29 22 22 23 c27 29 54 29 69 2z"/>
<path d="M4980 4168 c-76 -184 -77 -187 -46 -175 8 3 17 18 20 34 6 26 9 28
52 25 41 -4 45 -7 51 -33 6 -32 18 -45 28 -30 6 11 -18 105 -43 164 -18 42
-47 49 -62 15z m50 -70 c0 -13 -8 -18 -25 -18 -29 0 -28 -2 -13 40 10 31 12
32 25 15 7 -11 13 -27 13 -37z"/>
<path d="M5708 4180 c-8 -25 8 -184 20 -188 8 -2 12 9 12 37 0 23 4 41 9 41 5
0 21 -16 35 -35 27 -34 56 -47 56 -23 0 7 -12 24 -27 40 -25 27 -26 28 -9 47
19 21 15 51 -8 70 -17 14 -84 22 -88 11z m77 -41 c7 -10 -21 -38 -37 -39 -5 0
-8 11 -8 25 0 18 5 25 19 25 11 0 23 -5 26 -11z"/>
<path d="M5966 4094 c-3 -9 -6 -24 -6 -34 0 -9 -7 -23 -15 -30 -19 -16 -37 -2
-40 32 -4 36 -4 38 -14 38 -13 0 -19 -43 -10 -68 11 -30 44 -44 84 -36 35 6
35 6 35 60 0 40 -4 54 -14 54 -8 0 -17 -7 -20 -16z"/>
<path d="M6339 4080 c-13 -35 -16 -36 -49 -10 -53 42 -68 16 -17 -30 l32 -29
-23 -43 c-25 -49 -27 -58 -9 -58 15 0 97 150 97 179 0 31 -19 26 -31 -9z"/>
<path d="M6392 3658 c-27 -13 -46 -77 -38 -127 15 -93 126 -113 180 -31 28 42
21 60 -25 60 -38 0 -59 -10 -59 -27 0 -11 7 -14 25 -11 34 7 41 -7 13 -26 -31
-22 -71 -20 -93 4 -23 25 -16 107 11 127 28 20 71 16 88 -9 11 -15 19 -19 26
-12 7 7 4 19 -10 37 -17 21 -30 27 -58 26 -20 0 -47 -5 -60 -11z"/>
<path d="M5547 3654 c-3 -4 -4 -18 -1 -33 2 -14 6 -59 7 -100 2 -48 7 -76 15
-79 11 -3 17 19 14 58 -9 139 -17 172 -35 154z"/>
<path d="M4495 3554 c-5 -58 -4 -99 2 -105 5 -5 39 -11 74 -12 51 -2 64 1 64
13 0 11 -15 16 -59 18 l-59 3 6 90 c5 71 3 89 -8 89 -10 0 -15 -26 -20 -96z"/>
<path d="M5391 3586 c-52 -29 -70 -115 -29 -137 28 -15 85 -14 105 2 21 18 2
30 -32 21 -44 -12 -65 -4 -65 24 0 32 47 81 63 65 15 -15 27 -14 27 4 0 8 -9
19 -19 25 -24 12 -21 12 -50 -4z"/>
<path d="M5657 3570 c-33 -26 -37 -78 -9 -103 31 -29 77 -32 101 -8 12 12 21
28 21 37 0 20 -38 84 -50 84 -5 0 -15 2 -22 5 -8 3 -26 -4 -41 -15z m66 -43
c26 -34 10 -59 -31 -48 -20 5 -28 15 -30 36 -3 27 13 48 32 42 6 -2 19 -15 29
-30z"/>
<path d="M5895 3570 c-16 -18 -20 -19 -35 -5 -9 8 -20 15 -23 15 -12 0 -7 -23
8 -40 14 -15 13 -20 -5 -43 -11 -14 -20 -30 -20 -36 0 -19 29 -12 40 9 14 25
25 25 51 -1 34 -34 45 -8 13 30 -26 31 -26 32 -8 52 12 13 14 23 8 29 -7 7
-17 4 -29 -10z"/>
<path d="M6606 3568 c-24 -34 -20 -73 10 -97 55 -43 121 -10 111 56 -8 49 -24
63 -68 63 -28 0 -42 -6 -53 -22z m71 -6 c6 -4 14 -19 18 -33 9 -36 -16 -56
-50 -41 -29 13 -33 43 -9 66 17 18 24 19 41 8z"/>
<path d="M4877 3574 c-15 -15 -6 -23 30 -26 45 -4 58 -28 15 -28 -31 0 -62
-26 -62 -52 0 -21 50 -40 91 -36 46 6 55 42 26 100 -19 37 -27 43 -57 46 -20
2 -39 0 -43 -4z m67 -90 c20 -8 21 -35 1 -29 -8 3 -22 7 -31 10 -8 3 -12 9 -9
15 7 12 17 13 39 4z"/>
<path d="M4675 3560 c-13 -22 7 -90 32 -110 30 -23 71 -26 79 -6 3 8 12 12 19
9 27 -10 32 6 20 59 -14 64 -39 73 -41 16 -1 -40 -18 -68 -40 -68 -20 0 -44
41 -44 77 0 32 -12 43 -25 23z"/>
<path d="M5435 3108 c-38 -58 -44 -116 -16 -161 26 -43 47 -61 61 -52 7 4 -1
21 -20 45 -40 50 -39 85 4 148 19 28 31 53 28 56 -13 14 -30 3 -57 -36z"/>
<path d="M4628 3132 c-40 -5 -80 -61 -86 -120 -4 -42 -1 -51 26 -80 44 -47 81
-44 140 13 52 51 49 68 -13 63 -40 -3 -63 -28 -26 -28 28 0 26 -14 -4 -34 -34
-22 -61 -20 -79 6 -22 31 -20 76 4 116 16 26 26 32 55 32 24 0 37 -6 45 -20
13 -25 30 -26 30 -2 0 35 -44 60 -92 54z"/>
<path d="M5562 3115 c-25 -21 -31 -33 -28 -56 4 -38 23 -59 52 -59 25 0 74
-19 74 -30 0 -13 -25 -30 -45 -30 -11 0 -31 7 -44 16 -15 11 -26 13 -33 6 -15
-15 39 -52 77 -52 34 0 75 34 75 63 0 22 -57 57 -93 57 -26 0 -28 3 -25 32 4
43 47 61 77 34 14 -12 21 -14 26 -6 10 16 -14 37 -51 44 -25 6 -38 2 -62 -19z"/>
<path d="M5896 3130 c-8 -20 -2 -208 8 -217 12 -12 27 20 21 46 -6 25 18 61
41 61 18 0 27 -18 34 -63 7 -52 26 -42 22 12 -3 58 -26 84 -69 79 -32 -4 -32
-3 -41 47 -5 31 -11 44 -16 35z"/>
<path d="M6725 3120 c-3 -5 10 -26 29 -46 41 -42 46 -79 16 -112 -23 -25 -26
-42 -6 -42 23 0 56 55 56 94 0 27 -9 46 -36 76 -38 41 -49 47 -59 30z"/>
<path d="M5070 3031 c0 -50 0 -94 0 -98 0 -5 6 -8 13 -8 9 0 12 25 12 94 0 67
-4 96 -12 98 -10 4 -13 -18 -13 -86z"/>
<path d="M4975 3100 c-7 -12 2 -30 16 -30 12 0 12 27 0 35 -5 3 -12 1 -16 -5z"/>
<path d="M5185 3045 c-50 -49 -21 -139 43 -137 38 1 52 8 52 28 0 12 -7 14
-30 9 -19 -4 -36 -2 -45 5 -26 21 -17 35 22 35 36 0 38 1 35 30 -3 28 -25 55
-44 55 -5 0 -20 -11 -33 -25z m50 -25 c4 -6 -5 -10 -20 -10 -15 0 -24 4 -20
10 3 6 12 10 20 10 8 0 17 -4 20 -10z"/>
<path d="M6108 3045 c-53 -29 -45 -114 13 -134 23 -8 33 -6 54 11 31 24 20 47
-14 29 -24 -13 -61 1 -61 23 0 10 12 12 45 8 43 -4 45 -3 45 20 0 24 -27 58
-46 58 -5 -1 -21 -7 -36 -15z m52 -25 c0 -5 -9 -10 -21 -10 -11 0 -17 5 -14
10 3 6 13 10 21 10 8 0 14 -4 14 -10z"/>
<path d="M6556 3038 c-36 -51 -7 -108 55 -111 24 -2 34 3 37 15 3 15 -2 17
-25 12 -20 -4 -33 -1 -42 10 -12 14 -10 16 18 16 63 0 89 31 53 63 -27 25 -78
22 -96 -5z m74 -18 c0 -5 -14 -10 -31 -10 -17 0 -28 4 -24 10 3 6 17 10 31 10
13 0 24 -4 24 -10z"/>
<path d="M6254 3034 c3 -9 6 -40 6 -71 0 -39 3 -53 13 -50 6 2 11 17 10 33 -2
22 5 35 28 53 16 13 32 21 35 19 2 -3 5 -23 7 -46 3 -50 12 -60 27 -32 6 12 9
24 6 27 -3 3 6 14 20 25 34 28 56 17 52 -26 -4 -46 15 -49 23 -4 11 68 -19 96
-73 67 -17 -9 -23 -8 -30 5 -11 20 -38 21 -64 1 -25 -19 -34 -19 -34 0 0 8 -7
15 -16 15 -11 0 -14 -5 -10 -16z"/>
<path d="M4787 3033 c-26 -25 19 -113 57 -113 14 0 28 5 31 10 4 6 15 8 25 5
26 -8 30 5 18 53 -12 50 -35 56 -40 11 -4 -43 -34 -61 -54 -35 -8 11 -14 32
-14 48 0 27 -9 35 -23 21z"/>
<path d="M4970 2985 c0 -42 3 -55 15 -55 11 0 15 11 15 39 0 44 -8 71 -21 71
-5 0 -9 -25 -9 -55z"/>
<path d="M5726 3018 c-21 -30 -20 -50 5 -82 23 -29 63 -35 94 -13 26 20 11 39
-19 26 -32 -15 -68 4 -64 34 2 18 9 22 41 21 24 -1 37 3 37 11 0 31 -73 33
-94 3z"/>
<path d="M4751 2651 c-11 -11 -24 -33 -27 -47 -8 -33 18 -58 77 -74 43 -12 65
-40 47 -58 -17 -17 -60 -15 -84 3 -24 18 -34 19 -34 1 0 -23 41 -46 80 -46 49
0 85 36 71 71 -12 33 -40 55 -78 64 -41 8 -60 30 -44 49 18 22 47 25 77 10 19
-10 31 -11 38 -4 16 16 -16 41 -61 47 -33 4 -45 1 -62 -16z"/>
<path d="M5306 2568 c6 -106 10 -122 24 -113 21 13 6 195 -17 202 -9 3 -10
-20 -7 -89z"/>
<path d="M5418 2589 c-30 -17 -20 -29 22 -29 22 0 40 -4 40 -10 0 -5 -15 -10
-34 -10 -39 0 -58 -19 -58 -56 0 -35 18 -45 77 -40 l50 4 0 57 c-1 48 -4 60
-24 76 -26 21 -47 23 -73 8z m62 -99 c0 -16 -7 -20 -30 -20 -23 0 -30 4 -30
20 0 16 7 20 30 20 23 0 30 -4 30 -20z"/>
<path d="M5127 2583 c-15 -15 -5 -23 28 -23 19 0 35 -4 35 -10 0 -5 -11 -10
-23 -10 -34 0 -61 -33 -53 -65 5 -20 12 -25 39 -25 17 0 42 3 55 6 22 6 23 10
17 58 -4 28 -12 57 -17 64 -11 13 -70 17 -81 5z m47 -79 c25 -9 19 -24 -9 -24
-24 0 -32 10 -18 23 8 8 8 8 27 1z"/>
<path d="M4970 2552 c-18 -18 -30 -41 -30 -56 0 -31 32 -66 60 -66 32 0 70 22
70 42 0 22 1 22 -40 2 -31 -16 -34 -16 -47 1 -7 11 -13 24 -13 31 0 17 25 35
46 32 28 -4 32 13 7 29 -21 14 -25 13 -53 -15z"/>
<path d="M5942 2223 c-31 -43 -43 -101 -32 -145 14 -49 80 -103 80 -64 0 8 -7
17 -15 20 -9 3 -22 21 -30 40 -17 40 -5 98 27 133 19 20 18 43 -2 43 -5 0 -17
-12 -28 -27z"/>
<path d="M5732 2233 c-32 -6 -56 -46 -43 -71 8 -15 7 -27 -4 -49 -20 -38 -19
-46 8 -71 26 -25 95 -30 115 -10 14 14 16 74 2 83 -5 3 -7 25 -4 49 6 38 3 45
-17 60 -13 9 -26 15 -29 15 -3 -1 -15 -4 -28 -6z m48 -48 c0 -20 -39 -40 -52
-27 -6 6 -8 18 -5 26 8 20 57 21 57 1z m-5 -89 c26 -19 13 -46 -23 -46 -38 0
-60 24 -42 45 15 19 40 19 65 1z"/>
<path d="M6424 2228 c-4 -6 -1 -16 7 -22 28 -22 59 -69 59 -91 0 -12 -11 -39
-25 -59 -20 -30 -22 -38 -10 -42 21 -9 32 2 50 51 21 52 16 77 -25 133 -31 43
-44 50 -56 30z"/>
<path d="M5465 2190 c11 -82 44 -167 68 -174 11 -3 22 -4 23 -3 6 7 94 202 94
208 0 30 -26 -3 -66 -83 l-47 -93 -18 50 c-10 28 -20 61 -23 75 -3 14 -12 34
-21 45 -16 19 -16 18 -10 -25z"/>
<path d="M6118 2223 c-40 -4 -56 -33 -19 -33 26 0 30 -8 35 -65 6 -58 -7 -87
-37 -83 -16 2 -23 11 -25 31 -5 41 -32 35 -32 -8 0 -28 5 -37 30 -50 39 -20
47 -19 75 10 27 26 33 74 15 134 -8 29 -7 34 10 38 25 7 27 34 3 31 -10 -1
-35 -3 -55 -5z"/>
<path d="M6251 2204 c-25 -32 -26 -43 -5 -72 9 -14 26 -22 43 -22 15 0 36 -6
46 -14 16 -12 17 -16 6 -30 -15 -18 -66 -22 -76 -6 -8 13 -45 13 -45 1 0 -15
56 -51 80 -51 12 0 35 9 51 21 54 38 27 109 -42 109 -40 0 -54 23 -28 46 16
15 23 16 37 6 46 -33 62 -27 37 12 -24 36 -76 36 -104 0z"/>
<path d="M5766 1691 c-3 -4 -3 -54 1 -110 4 -75 9 -101 20 -101 9 0 13 14 13
44 0 42 2 45 33 55 42 14 64 50 48 79 -15 28 -103 54 -115 33z m82 -44 c17
-14 -4 -37 -34 -37 -20 0 -24 5 -24 31 0 27 3 30 23 23 12 -3 28 -11 35 -17z"/>
<path d="M5327 1588 c-2 -57 -1 -107 3 -112 16 -16 30 5 30 45 0 36 2 39 29
39 39 0 61 24 61 64 0 44 -26 66 -77 66 l-40 0 -6 -102z m88 61 c4 -5 4 -21 1
-35 -5 -17 -13 -24 -31 -24 -22 0 -25 4 -25 35 0 30 3 35 24 35 14 0 28 -5 31
-11z"/>
<path d="M5505 1678 c-3 -7 -4 -56 -3 -108 3 -77 6 -95 18 -95 12 0 14 10 12
47 -4 46 -3 47 30 52 18 4 42 4 53 2 11 -3 23 -5 28 -5 4 -1 7 -21 7 -46 0
-33 4 -45 15 -45 12 0 15 18 15 105 0 87 -3 105 -15 105 -11 0 -15 -11 -15
-40 l0 -40 -60 0 -60 0 0 40 c0 38 -15 54 -25 28z"/>
<path d="M5930 1679 c0 -6 5 -19 10 -29 7 -13 6 -27 -2 -44 -14 -33 -9 -38 47
-41 26 -2 49 -5 52 -8 4 -5 9 -33 12 -80 1 -5 7 -7 14 -4 7 2 12 20 12 43 0
21 2 39 5 40 3 0 15 6 28 13 27 14 20 31 -13 31 -21 0 -24 5 -27 43 -2 29 -8
42 -18 42 -11 0 -14 -10 -12 -42 3 -37 1 -43 -17 -44 -12 -1 -27 -2 -33 -3 -8
-1 -12 9 -10 26 2 15 -2 36 -8 47 -11 22 -40 29 -40 10z"/>
<path d="M2996 5633 c-11 -11 -6 -23 9 -23 8 0 15 4 15 9 0 13 -16 22 -24 14z"/>
<path d="M3416 5561 c-21 -23 -4 -40 20 -20 12 10 18 9 32 -4 15 -16 14 -17
-16 -17 -55 0 -94 -60 -58 -89 19 -16 105 -9 117 10 13 21 11 66 -6 98 -22 44
-61 54 -89 22z m54 -81 c13 -9 13 -11 0 -20 -22 -14 -50 -12 -50 4 0 12 13 23
30 25 3 0 12 -4 20 -9z"/>
<path d="M3587 5554 c-38 -38 -37 -84 4 -118 36 -30 38 -31 85 -11 46 19 35
37 -17 29 -45 -7 -69 7 -69 41 0 12 9 30 19 39 16 14 23 15 41 6 26 -14 38 -5
24 18 -18 28 -57 26 -87 -4z"/>
<path d="M3223 5559 c-17 -17 44 -129 69 -129 10 0 18 7 18 18 0 9 11 35 25
57 13 22 25 46 25 53 0 26 -26 10 -48 -29 -19 -33 -26 -38 -38 -28 -8 6 -14
17 -14 23 0 7 -6 20 -13 29 -10 14 -15 15 -24 6z"/>
<path d="M3000 5468 c0 -100 -7 -121 -35 -116 -26 5 -30 -19 -4 -32 18 -10 25
-9 43 9 18 19 21 35 24 126 3 91 2 105 -12 105 -13 0 -16 -15 -16 -92z"/>
<path d="M3097 5554 c-12 -12 4 -24 33 -24 16 0 32 -4 35 -10 4 -6 -7 -10 -24
-10 -31 0 -71 -29 -71 -51 0 -30 55 -47 108 -33 19 5 22 13 22 54 0 31 -6 54
-16 64 -15 16 -75 22 -87 10z m47 -80 c22 -9 20 -24 -3 -24 -21 0 -34 13 -24
24 8 7 8 7 27 0z"/>
<path d="M3850 4952 c-49 -15 -79 -79 -66 -144 12 -64 129 -105 160 -56 15 25
0 34 -30 18 -23 -13 -30 -12 -62 5 -31 17 -37 26 -40 57 -2 20 2 46 8 57 15
30 56 37 81 15 26 -23 45 -6 24 23 -15 21 -50 33 -75 25z"/>
<path d="M3352 4924 c-42 -29 -62 -92 -46 -150 12 -47 123 -73 159 -38 23 23
47 73 40 84 -8 12 -55 13 -74 1 -16 -10 -6 -31 15 -31 12 0 13 -4 3 -21 -9
-18 -17 -20 -52 -15 -53 9 -67 21 -67 61 0 39 42 95 70 95 10 0 32 -11 48 -25
25 -21 31 -23 36 -9 3 9 -4 25 -19 40 -28 28 -79 32 -113 8z"/>
<path d="M3597 4905 c-63 -65 -57 -129 16 -164 47 -23 86 -21 107 4 13 15 -3
30 -20 20 -29 -18 -60 -14 -90 11 -25 22 -30 32 -25 53 7 29 30 58 58 72 12 7
24 5 39 -6 28 -19 38 -19 38 -1 0 20 -39 46 -67 46 -12 0 -37 -16 -56 -35z"/>
<path d="M7615 4729 c-22 -21 -44 -39 -48 -39 -5 0 -23 16 -41 35 -19 19 -38
35 -43 35 -6 0 -13 -34 -17 -77 -10 -118 -8 -143 9 -143 12 0 15 13 15 58 0
31 3 67 6 80 6 22 6 22 41 -9 l35 -31 30 36 c16 20 34 36 39 36 5 0 9 -36 9
-80 0 -66 3 -80 16 -80 13 0 15 14 13 93 -2 98 -6 128 -17 126 -4 -1 -25 -18
-47 -40z"/>
<path d="M7776 4761 c-17 -6 -20 -20 -24 -99 -3 -64 0 -97 8 -107 23 -27 33
-17 26 28 -5 33 -3 47 8 56 17 14 36 7 36 -14 0 -19 59 -85 76 -85 20 0 18 7
-15 49 -38 48 -41 61 -24 94 13 25 12 31 -2 53 -8 13 -22 24 -29 24 -8 0 -20
2 -28 4 -7 3 -22 1 -32 -3z m58 -40 c17 -19 17 -20 -3 -30 -20 -11 -51 -15
-51 -7 0 15 21 56 28 56 5 0 17 -9 26 -19z"/>
<path d="M7956 4761 c-4 -5 3 -15 14 -21 19 -10 21 -19 19 -78 -1 -42 -7 -73
-16 -84 -21 -23 -8 -38 33 -38 38 0 41 5 19 30 -20 23 -10 170 12 170 8 0 13
6 11 13 -5 15 -84 22 -92 8z"/>
<path d="M8226 4737 c-34 -45 -48 -85 -40 -119 7 -34 60 -98 80 -98 20 0 17
28 -5 39 -10 6 -26 26 -35 46 -16 32 -16 38 -1 69 9 19 25 42 35 51 18 16 17
45 -1 45 -4 0 -19 -15 -33 -33z"/>
<path d="M9030 4752 c0 -9 9 -23 20 -29 11 -7 26 -26 35 -43 18 -35 9 -61 -33
-97 -20 -17 -24 -25 -15 -34 24 -24 93 54 93 106 0 27 -28 72 -59 94 -35 26
-41 26 -41 3z"/>
<path d="M8353 4753 c-13 -9 -20 -163 -9 -182 12 -20 26 -1 26 35 0 47 23 44
56 -6 15 -22 30 -40 35 -40 19 0 19 22 -2 51 -18 26 -20 34 -9 54 13 24 17 71
7 82 -10 9 -91 14 -104 6z m82 -33 c10 -16 -15 -40 -41 -40 -19 0 -24 5 -24
25 0 21 5 25 29 25 17 0 33 -5 36 -10z"/>
<path d="M8710 4662 l0 -88 30 -11 c32 -12 70 -7 82 11 4 6 8 23 8 38 0 32
-41 68 -69 61 -15 -4 -19 3 -25 36 -11 72 -26 45 -26 -47z m88 -45 c2 -9 -4
-20 -13 -23 -20 -8 -50 19 -40 36 10 17 49 8 53 -13z"/>
<path d="M8951 4644 l-24 -35 -22 27 c-33 41 -52 22 -24 -23 21 -33 21 -37 6
-63 -21 -35 -21 -50 -2 -50 8 0 15 3 15 8 0 4 22 41 49 82 45 68 53 90 33 90
-4 0 -18 -16 -31 -36z"/>
<path d="M8520 4632 c0 -25 6 -45 18 -55 21 -19 57 -22 67 -7 4 6 15 8 25 5
26 -8 30 5 17 48 -14 42 -34 48 -43 12 -13 -53 -48 -51 -56 4 -6 43 -28 37
-28 -7z"/>
<path d="M1947 4121 c-54 -9 -50 -25 6 -29 l48 -3 -2 -85 c-1 -53 2 -89 10
-97 13 -13 13 -17 19 141 2 51 3 52 32 52 20 0 30 5 30 15 0 12 -12 15 -52 14
-29 -1 -70 -5 -91 -8z"/>
<path d="M2723 4119 c-53 -15 -58 -88 -7 -97 10 -2 31 -16 46 -30 21 -19 25
-29 17 -39 -14 -16 -43 -17 -69 -1 -27 17 -37 2 -15 -22 23 -25 76 -26 98 -2
37 41 6 102 -60 118 -12 4 -23 12 -23 20 0 19 49 30 71 16 26 -16 35 4 13 29
-19 21 -24 22 -71 8z"/>
<path d="M3202 4098 c6 -18 28 -21 28 -4 0 9 -7 16 -16 16 -9 0 -14 -5 -12
-12z"/>
<path d="M3500 4087 c0 -17 -7 -28 -20 -32 -24 -7 -26 -23 -5 -31 9 -4 15 -19
15 -36 0 -54 79 -104 88 -55 3 12 -3 17 -21 17 -40 0 -54 66 -15 72 28 4 36
28 9 28 -14 0 -21 8 -23 27 -4 35 -28 43 -28 10z"/>
<path d="M2504 4026 c-39 -39 -43 -67 -13 -97 26 -26 92 -24 97 4 3 16 -1 18
-27 12 -20 -4 -37 -2 -46 5 -25 20 -17 26 33 25 44 0 47 2 50 27 2 18 -4 31
-20 42 -31 22 -35 21 -74 -18z m66 -16 c0 -5 -9 -10 -20 -10 -11 0 -20 5 -20
10 0 6 9 10 20 10 11 0 20 -4 20 -10z"/>
<path d="M3080 4050 c-8 -5 -23 -7 -33 -4 -16 5 -18 -1 -15 -62 2 -43 8 -69
16 -72 8 -2 12 10 12 41 0 54 21 78 51 59 27 -17 39 13 13 33 -23 17 -25 17
-44 5z"/>
<path d="M3199 3996 c-1 -31 -2 -62 -3 -68 -1 -7 5 -13 13 -13 19 0 22 126 4
132 -9 3 -13 -11 -14 -51z"/>
<path d="M3299 4046 c-2 -2 -3 -50 -1 -106 2 -72 7 -100 15 -97 7 2 13 20 15
40 3 33 6 36 40 39 27 2 40 10 51 29 31 55 -19 116 -74 91 -15 -7 -25 -8 -25
-2 0 10 -13 14 -21 6z m98 -52 c8 -22 -18 -45 -45 -38 -24 7 -28 24 -10 42 17
17 48 15 55 -4z"/>
<path d="M2327 4033 c-4 -3 -7 -46 -7 -95 0 -72 3 -88 15 -88 11 0 15 11 15
36 0 33 2 36 24 30 53 -13 95 65 57 103 -22 22 -56 28 -66 11 -5 -8 -11 -8
-19 -1 -7 6 -16 8 -19 4z m82 -32 c19 -12 4 -51 -20 -51 -25 0 -35 25 -19 45
14 17 20 18 39 6z"/>
<path d="M2878 4023 c-24 -27 -27 -45 -12 -75 18 -34 65 -46 99 -24 14 9 25
21 25 26 0 12 -27 13 -34 1 -7 -11 -53 -2 -66 14 -15 18 16 48 42 39 16 -5 19
-2 16 13 -4 25 -50 29 -70 6z"/>
<path d="M2215 3988 l-30 -40 -31 36 c-17 20 -34 36 -38 36 -14 0 -4 -37 19
-65 l24 -29 -24 -32 c-28 -37 -31 -47 -11 -42 17 4 136 139 136 155 0 26 -17
19 -45 -19z"/>
<path d="M8316 3603 c-12 -41 -10 -187 2 -191 6 -2 12 -2 12 0 10 96 10 208 2
208 -6 0 -13 -8 -16 -17z"/>
<path d="M8220 3585 c0 -9 5 -15 11 -13 6 2 11 8 11 13 0 5 -5 11 -11 13 -6 2
-11 -4 -11 -13z"/>
<path d="M8402 3523 c-31 -28 -35 -56 -11 -86 27 -36 82 -38 104 -4 14 21 14
28 1 59 -21 50 -58 62 -94 31z m60 -32 c-1 -7 2 -19 9 -27 8 -10 5 -15 -15
-20 -45 -11 -76 33 -38 55 22 14 48 9 44 -8z"/>
<path d="M8226 3518 c-2 -7 -9 -39 -16 -71 -12 -62 -30 -78 -61 -59 -24 15
-29 15 -29 -2 0 -21 38 -45 60 -39 28 7 47 42 59 108 6 32 11 62 11 67 0 13
-20 9 -24 -4z"/>
<path d="M8530 3501 c0 -10 7 -24 15 -31 8 -7 15 -23 15 -36 0 -24 14 -32 25
-15 3 6 20 4 41 -5 20 -8 39 -12 43 -9 6 7 -30 40 -51 47 -9 3 -8 12 5 31 9
14 17 29 17 32 0 13 -23 3 -39 -17 -18 -22 -41 -18 -41 8 0 8 -7 14 -15 14 -8
0 -15 -8 -15 -19z"/>
<path d="M2343 3125 c-12 -9 -25 -31 -29 -50 -3 -18 -12 -36 -20 -39 -22 -8
-17 -24 9 -28 18 -2 23 -11 27 -50 10 -82 33 -80 31 2 0 39 3 50 15 50 9 0 14
6 11 13 -2 6 -11 12 -20 12 -8 0 -18 3 -22 6 -12 12 7 58 26 64 21 7 26 35 6
35 -7 0 -22 -7 -34 -15z"/>
<path d="M2507 3108 c-8 -13 -17 -35 -21 -50 -4 -16 -11 -28 -16 -28 -16 0
-11 -27 6 -34 8 -3 13 -10 9 -15 -3 -5 -1 -12 5 -16 5 -3 10 -17 10 -30 0 -23
16 -42 27 -32 3 3 -1 22 -7 43 -12 34 -11 38 11 55 l24 19 -22 6 c-13 4 -23
12 -23 18 0 18 27 51 42 51 22 0 14 30 -9 33 -14 2 -27 -5 -36 -20z"/>
<path d="M1907 3089 c-34 -28 -37 -34 -37 -85 0 -45 5 -59 24 -79 35 -35 91
-43 124 -18 31 23 41 53 18 53 -9 0 -16 -4 -16 -10 0 -11 -48 -26 -70 -21 -30
6 -50 34 -50 72 0 29 6 43 31 63 37 31 50 32 74 6 19 -21 45 -27 45 -10 0 6
-11 22 -25 35 -33 34 -72 32 -118 -6z"/>
<path d="M3005 3111 c-25 -11 -40 -29 -49 -58 -11 -35 32 -73 83 -73 45 0 59
-13 40 -37 -10 -12 -26 -14 -66 -10 -64 7 -75 -5 -27 -28 65 -31 134 1 134 62
0 28 -45 53 -94 53 -52 0 -60 30 -15 58 17 11 26 10 51 -3 38 -18 38 -18 38
-1 0 29 -58 52 -95 37z"/>
<path d="M3495 3110 c-4 -6 -3 -16 3 -22 6 -6 12 -6 17 2 4 6 3 16 -3 22 -6 6
-12 6 -17 -2z"/>
<path d="M3800 3082 c0 -11 -11 -24 -25 -30 -30 -14 -33 -32 -6 -32 16 0 21
-10 27 -46 7 -48 36 -73 69 -60 21 8 14 31 -10 31 -18 0 -33 25 -34 58 -1 10
6 17 18 17 31 0 35 19 7 30 -16 6 -26 17 -26 30 0 11 -4 20 -10 20 -5 0 -10
-8 -10 -18z"/>
<path d="M2632 3043 c-20 -8 -41 -58 -35 -84 14 -56 74 -78 119 -44 21 16 17
18 -38 19 -49 1 -49 20 -1 26 29 4 39 10 41 27 6 38 -46 72 -86 56z m42 -29
c26 -10 18 -24 -14 -24 -29 0 -38 9 -23 23 8 9 17 9 37 1z"/>
<path d="M2799 3035 c-72 -39 -49 -135 32 -135 40 0 58 13 37 26 -7 5 -25 7
-40 5 -30 -3 -48 17 -27 30 8 5 29 9 47 9 29 0 32 3 32 28 0 21 -7 32 -25 40
-30 14 -24 14 -56 -3z m46 -24 c6 -11 -33 -26 -43 -16 -4 3 0 10 8 15 19 12
27 12 35 1z"/>
<path d="M3189 3027 c-25 -19 -41 -56 -34 -78 12 -36 110 -57 103 -21 -2 9
-10 16 -17 14 -43 -9 -68 32 -36 58 12 10 18 10 30 0 20 -17 32 -4 19 18 -14
21 -44 26 -65 9z"/>
<path d="M3322 2978 c2 -48 7 -63 18 -63 10 0 15 10 15 33 0 38 25 63 55 55
13 -4 20 0 20 10 0 19 -38 29 -61 16 -11 -6 -20 -5 -24 1 -16 26 -26 5 -23
-52z"/>
<path d="M2130 3008 c-31 -33 -26 -74 11 -97 33 -20 52 -18 82 7 24 21 21 54
-8 86 -29 32 -57 33 -85 4z m65 -28 c17 -19 17 -22 3 -37 -30 -29 -74 10 -48
42 16 20 23 19 45 -5z"/>
<path d="M3486 2968 c8 -71 10 -76 26 -60 14 14 -2 114 -19 120 -10 3 -11 -11
-7 -60z"/>
<path d="M3592 2938 c2 -75 6 -93 18 -93 11 0 14 9 12 33 -3 31 -2 32 36 32
45 0 72 23 72 62 0 45 -66 78 -97 47 -8 -8 -13 -8 -17 0 -19 30 -27 4 -24 -81z
m106 35 c2 -17 -3 -23 -27 -28 -43 -9 -54 1 -34 31 20 31 57 29 61 -3z"/>
<path d="M7827 2253 c-2 -4 -6 -55 -8 -112 -3 -77 -1 -105 9 -108 8 -3 12 10
12 46 0 51 0 51 33 51 43 0 77 25 77 56 0 31 -33 64 -64 64 -13 0 -31 3 -39 6
-8 3 -17 2 -20 -3z m81 -45 c20 -20 14 -36 -18 -43 -38 -8 -48 -1 -42 30 5 27
38 35 60 13z"/>
<path d="M8207 2253 c-10 -17 -7 -223 3 -223 15 0 23 25 24 73 1 33 5 42 21
45 28 6 55 32 55 53 0 26 -39 59 -71 59 -15 0 -30 -3 -32 -7z m57 -29 c30 -12
12 -44 -25 -44 -5 0 -9 11 -9 25 0 26 7 29 34 19z"/>
<path d="M7989 2213 c0 -21 -2 -69 -5 -106 -5 -62 -3 -68 13 -65 14 3 17 11
15 40 -4 43 3 49 51 41 36 -5 37 -7 37 -49 0 -41 16 -69 24 -42 3 7 7 60 11
116 5 83 3 103 -7 100 -7 -3 -14 -22 -16 -44 -4 -51 -12 -57 -60 -49 l-39 6 5
45 c4 36 2 44 -12 44 -12 0 -16 -10 -17 -37z"/>
<path d="M8379 2231 c-30 -24 -21 -36 14 -20 21 9 30 9 42 -1 19 -15 4 -37
-27 -42 -31 -4 -34 -26 -6 -37 13 -5 29 -16 36 -24 18 -21 -12 -51 -42 -42
-35 10 -41 10 -45 0 -2 -5 8 -17 22 -25 34 -19 77 -4 95 33 12 24 11 32 -4 55
-12 18 -13 27 -6 30 7 2 12 18 12 36 0 25 -6 35 -25 44 -34 16 -39 15 -66 -7z"/>
<path d="M2329 2153 c-1 -6 0 -166 1 -237 0 -5 7 -3 15 4 9 8 15 29 15 55 0
35 4 44 22 48 22 6 45 -12 80 -63 13 -20 19 -22 29 -13 10 10 6 19 -15 48 -27
35 -27 37 -12 70 22 46 21 52 -16 75 -32 19 -117 28 -119 13z m96 -35 c14 -6
25 -14 25 -17 -1 -18 -21 -33 -54 -41 -30 -7 -36 -5 -36 9 0 9 -3 26 -6 39 -5
19 -2 22 19 22 14 0 38 -5 52 -12z"/>
<path d="M2960 2106 c0 -15 -8 -30 -20 -36 -11 -6 -20 -15 -20 -21 0 -6 9 -13
20 -16 16 -4 20 -14 20 -44 0 -32 5 -41 29 -53 29 -16 41 -13 41 11 0 7 -9 13
-19 13 -37 0 -39 73 -3 78 31 5 28 32 -2 32 -21 0 -24 5 -23 26 1 15 -4 29
-10 31 -8 3 -13 -5 -13 -21z"/>
<path d="M2782 2074 c-28 -20 -30 -69 -3 -84 11 -5 31 -10 45 -10 29 0 35 -15
10 -24 -20 -8 -54 2 -54 15 0 5 -4 9 -10 9 -21 0 -9 -41 15 -52 34 -15 89 1
93 27 4 30 -22 59 -54 60 -15 0 -29 6 -31 12 -6 18 26 28 48 15 23 -15 38 4
18 23 -24 22 -54 26 -77 9z"/>
<path d="M2538 2035 c-5 -23 23 -83 39 -86 5 -1 32 -3 60 -4 l52 -2 -2 51 c-2
59 -26 71 -39 20 -4 -18 -15 -35 -24 -38 -22 -9 -51 19 -59 55 -8 36 -21 38
-27 4z"/>
<path d="M3665 1419 c5 -112 9 -134 26 -124 5 4 6 50 3 108 -6 112 -9 127 -23
127 -6 0 -8 -44 -6 -111z"/>
<path d="M4232 1458 c-7 -7 -29 -11 -50 -10 -53 4 -81 -26 -65 -69 12 -31 4
-71 -16 -83 -11 -7 -3 -37 13 -48 6 -4 32 -8 57 -8 57 0 77 18 63 58 -8 22
-17 28 -49 32 l-40 5 30 8 c35 10 67 36 59 48 -3 5 3 20 12 34 19 29 7 54 -14
33z m-32 -48 c13 -9 13 -11 0 -20 -19 -13 -47 -13 -55 0 -16 25 25 40 55 20z
m-6 -116 c29 -11 16 -24 -24 -24 -29 0 -40 4 -40 15 0 16 35 20 64 9z"/>
<path d="M3757 1443 c-17 -16 -5 -31 24 -29 18 0 34 -5 36 -11 3 -9 -6 -13
-25 -13 -36 0 -66 -31 -57 -59 8 -25 43 -35 91 -26 l36 6 -4 50 c-3 28 -13 58
-23 69 -17 19 -64 27 -78 13z m51 -92 c11 -6 10 -9 -5 -13 -23 -6 -45 1 -37
13 7 11 25 11 42 0z"/>
<path d="M3912 1390 c1 -33 5 -65 9 -71 12 -20 31 1 25 27 -9 33 20 76 48 72
17 -2 23 -13 30 -56 11 -64 32 -65 29 -1 -3 79 -38 108 -93 79 -13 -7 -21 -7
-25 0 -15 25 -25 5 -23 -50z"/>
<path d="M3503 1418 c-30 -38 -35 -59 -18 -84 30 -46 115 -56 115 -14 0 15 -6
18 -32 14 -20 -3 -40 0 -52 9 -16 12 -17 16 -5 36 11 18 20 21 47 17 27 -4 33
-2 30 12 -4 21 -70 29 -85 10z"/>
<path d="M4000 323 c-12 -3 -16 -29 -18 -139 -3 -109 -1 -135 10 -132 7 3 13
20 14 39 1 56 2 58 43 69 48 13 65 32 65 76 0 54 -62 101 -114 87z m73 -54
c15 -21 12 -59 -7 -71 -6 -4 -22 -8 -35 -8 -22 0 -23 3 -17 38 3 20 6 43 6 50
0 20 38 14 53 -9z"/>
<path d="M4182 313 c2 -11 11 -17 21 -15 19 3 19 5 17 -123 -1 -67 -5 -92 -16
-98 -8 -4 -14 -14 -14 -22 0 -13 25 -15 93 -6 15 2 6 19 -13 24 -18 5 -20 14
-20 116 0 92 3 111 15 111 8 0 15 7 15 15 0 11 -12 15 -51 15 -43 0 -50 -3
-47 -17z"/>
<path d="M4382 309 c-5 -13 -8 -78 -8 -144 l1 -120 53 -1 c29 -1 55 -4 58 -7
10 -9 45 13 39 24 -4 5 -33 9 -66 9 l-60 0 2 125 c2 126 -3 158 -19 114z"/>
<path d="M4681 321 l-74 -6 0 -125 c1 -69 4 -132 7 -140 8 -19 157 -22 163 -4
4 13 -41 24 -98 24 l-39 0 0 46 0 45 43 -3 c32 -2 42 1 42 12 0 9 -11 15 -32
16 -56 3 -63 9 -63 59 0 50 -4 48 98 45 46 -1 53 1 50 16 -4 21 -5 22 -97 15z"/>
<path d="M4918 323 l-38 -4 0 -127 c0 -70 4 -133 9 -141 16 -25 29 -2 24 42
-5 39 -3 45 16 50 22 5 42 -15 75 -81 14 -27 20 -31 31 -22 12 10 9 18 -16 52
-34 48 -36 64 -9 78 11 6 23 25 28 43 13 47 -4 86 -44 103 -18 8 -35 13 -36
12 -2 -1 -20 -3 -40 -5z m83 -41 c4 -4 10 -17 13 -29 10 -31 -33 -73 -74 -73
-30 0 -30 0 -30 54 0 34 5 56 13 60 15 6 69 -2 78 -12z"/>
<path d="M6818 319 c-15 -10 -11 -268 4 -287 12 -14 135 -16 158 -2 25 16 1
25 -68 25 l-67 0 -6 42 c-7 54 1 67 37 60 34 -6 54 1 54 19 0 10 -13 14 -44
14 l-45 0 -7 45 c-3 25 -3 49 0 52 4 4 40 6 81 5 47 -2 75 2 75 8 0 6 -6 13
-12 15 -24 8 -148 11 -160 4z"/>
<path d="M7095 321 c-37 -8 -39 -20 -30 -168 5 -87 10 -113 21 -113 10 0 14
14 14 49 0 61 16 74 44 37 51 -66 75 -91 81 -84 4 4 -7 27 -24 52 -17 24 -31
47 -31 49 0 3 16 21 35 40 52 52 41 119 -22 129 -16 3 -35 8 -43 10 -8 3 -28
3 -45 -1z m105 -46 c17 -11 11 -48 -12 -72 -15 -16 -33 -23 -60 -23 l-38 0 0
56 0 57 50 -6 c28 -3 55 -9 60 -12z"/>
<path d="M3159 292 c-24 -21 -33 -40 -39 -79 -20 -126 46 -201 145 -163 15 6
25 16 22 23 -4 13 -13 13 -63 2 -25 -6 -36 -3 -53 14 -30 30 -30 130 0 172 23
33 68 40 89 14 15 -19 33 -6 25 17 -14 37 -85 36 -126 0z"/>
<path d="M3456 305 c-96 -50 -107 -199 -17 -244 30 -15 42 -17 75 -7 56 16 79
52 79 123 0 115 -58 169 -137 128z m89 -36 c5 -5 11 -38 13 -73 4 -59 2 -67
-21 -90 -31 -31 -65 -33 -101 -5 -65 51 1 203 79 182 11 -3 24 -9 30 -14z"/>
<path d="M3836 281 c-26 -23 -49 -41 -50 -41 -2 0 -20 16 -40 35 -21 19 -43
35 -50 35 -9 0 -16 -26 -21 -82 -13 -139 -12 -173 5 -173 11 0 15 12 16 40 0
22 4 69 9 105 l7 64 33 -38 32 -39 43 39 42 38 -3 -69 c-4 -108 -1 -147 14
-142 8 2 11 20 9 55 -2 29 2 84 8 123 16 93 6 102 -54 50z"/>
<path d="M5990 307 c0 -8 11 -18 25 -21 25 -6 25 -8 25 -110 0 -101 -1 -105
-22 -108 -13 -2 -23 -10 -23 -18 0 -11 12 -15 46 -16 26 -1 52 2 59 6 15 9 5
30 -16 30 -11 0 -14 20 -14 105 l0 105 25 0 c16 0 25 6 25 15 0 8 -8 15 -19
15 -10 0 -39 3 -65 6 -37 6 -46 4 -46 -9z"/>
<path d="M7347 307 c-16 -11 -19 -31 -22 -139 -3 -99 -1 -128 10 -132 18 -6
22 9 20 67 l-2 47 36 0 c39 0 94 29 109 57 14 26 3 72 -22 88 -33 20 -108 28
-129 12z m105 -33 c9 -3 20 -15 24 -26 9 -31 -39 -68 -88 -68 l-37 0 1 48 c0
26 6 50 12 54 10 7 45 4 88 -8z"/>
<path d="M8178 312 c-74 -3 -97 -12 -62 -26 9 -3 26 -6 40 -6 23 0 23 -1 26
-127 4 -168 23 -164 23 4 0 119 1 122 23 128 13 3 27 3 33 -1 6 -3 21 -3 34 0
32 8 22 33 -13 32 -15 -1 -62 -2 -104 -4z"/>
<path d="M8647 314 c-17 -5 -17 -16 -11 -132 3 -70 8 -130 11 -134 13 -22 22
-1 25 54 2 50 7 63 20 66 12 2 26 -14 49 -60 38 -76 37 -74 50 -61 7 7 1 28
-22 68 -31 55 -32 58 -14 71 10 7 22 15 27 16 5 2 12 22 15 44 4 30 1 43 -12
54 -17 14 -106 23 -138 14z m107 -30 c22 -8 20 -51 -2 -63 -9 -5 -34 -12 -55
-16 l-37 -7 0 39 c0 22 3 43 7 46 8 9 66 9 87 1z"/>
<path d="M6201 174 c1 -120 3 -135 17 -132 15 3 17 17 14 103 -4 116 -6 116
79 -10 71 -105 76 -110 94 -95 12 10 15 38 15 124 0 103 -9 150 -26 134 -4 -4
-6 -52 -5 -108 1 -55 -1 -100 -6 -100 -4 0 -41 50 -81 110 -39 61 -79 110 -87
110 -13 0 -15 -20 -14 -136z"/>
<path d="M6523 297 c-8 -13 2 -18 46 -24 l41 -6 1 -61 c2 -97 13 -169 27 -174
11 -3 12 20 6 122 l-7 126 47 0 c35 0 46 4 46 16 0 13 -14 15 -101 12 -55 -2
-103 -7 -106 -11z"/>
<path d="M7584 178 c4 -73 10 -136 12 -140 13 -20 24 8 24 58 0 30 4 54 10 54
5 0 24 -25 41 -55 33 -59 44 -70 58 -60 5 3 -6 29 -25 57 -19 29 -34 55 -34
58 0 3 14 14 30 23 24 15 30 25 30 52 0 53 -44 85 -117 85 l-36 0 7 -132z
m106 82 c11 -11 20 -24 20 -30 0 -20 -41 -50 -69 -50 -24 0 -29 5 -32 28 -8
54 0 72 32 72 16 0 38 -9 49 -20z"/>
<path d="M7839 306 c-8 -9 0 -259 9 -268 13 -13 164 -15 169 -2 2 7 -22 13
-68 17 -39 3 -73 7 -74 9 -2 2 -5 23 -6 48 l-4 45 39 0 c55 0 59 23 4 27 l-43
3 -3 48 -3 47 76 0 c57 0 76 3 73 13 -5 12 -158 24 -169 13z"/>
<path d="M8371 176 c0 -155 -5 -148 99 -149 54 0 66 3 68 17 3 15 -4 17 -65
15 l-68 -3 0 50 0 49 44 0 c63 0 64 21 1 30 -37 5 -50 11 -51 23 0 10 -2 29
-4 45 l-4 27 75 0 c59 0 74 3 74 15 0 12 -16 15 -85 15 l-84 0 0 -134z"/>
</g>
</svg>
